<svg width="511" height="210" viewBox="0 0 511 210" fill="none" xmlns="http://www.w3.org/2000/svg">
<rect x="2.0049" y="2.34462" width="506.263" height="205.688" rx="102.25" fill="white" stroke="#E0E0E0" stroke-width="3.72068"/>
<mask id="mask0_8425_356" style="mask-type:alpha" maskUnits="userSpaceOnUse" x="3" y="4" width="504" height="203">
<rect x="3.86523" y="4.20557" width="502.543" height="201.967" rx="100.39" fill="white"/>
</mask>
<g mask="url(#mask0_8425_356)">
<path d="M206.418 113.142C205.508 108.311 203.092 103.638 199.489 99.6383C194.459 94.2131 187.688 91.2432 180.481 91.2432C173.274 91.2432 166.462 94.2923 161.592 99.6383C158.107 103.479 155.731 108.152 154.662 113.142C154.187 115.32 153.949 117.537 153.949 119.715C153.949 121.893 153.949 121.418 154.068 122.25C154.543 128.902 157.157 134.922 161.592 139.753C166.462 145.257 173.194 148.267 180.52 148.267C186.064 148.029 191.133 146.603 195.212 144.109C197.944 142.445 200.36 140.426 202.617 137.931L202.934 137.575L193.628 131.991L193.39 132.229C190.103 135.516 185.153 137.614 180.243 137.892C172.6 137.773 165.948 131.12 164.72 122.368H206.973L207.052 122.012C207.171 121.062 207.329 118.25 206.458 113.142H206.418ZM165.71 112.944C168.284 106.053 174.026 101.618 180.481 101.618C186.935 101.618 192.836 106.172 195.251 112.944H165.71Z" fill="#07A1A9"/>
<path d="M258.612 91.243H258.216V97.183C254.018 93.817 247.682 90.0551 240.119 90.0551C232.555 90.0551 224.991 93.025 219.448 98.4502C213.943 104.073 210.934 111.399 210.934 119.121C210.934 126.843 213.943 134.169 219.448 139.792C224.991 145.217 232.317 148.187 240.119 148.187C247.92 148.187 254.018 144.425 258.216 141.059V146.96H269.303V91.2034H258.612V91.243ZM240.158 137.297C230.179 137.297 222.061 129.14 222.061 119.082C222.061 109.023 230.179 100.866 240.158 100.866C250.137 100.866 258.255 109.023 258.255 119.082C258.255 129.14 250.137 137.297 240.158 137.297Z" fill="#07A1A9"/>
<path d="M312.547 148.425H299.914C294.925 148.425 290.252 146.524 286.728 143C283.203 139.515 281.263 134.803 281.263 129.773V103.281H273.105V92.6686H281.263V71.4432H292.351V92.6686H309.26V103.281H292.351V129.496C292.351 133.813 296.034 137.733 300.112 137.733H309.656L312.507 148.346L312.547 148.425Z" fill="#07A1A9"/>
<path d="M118.507 60.3942C118.15 60.3942 117.794 60.3942 117.437 60.3942C117.041 60.3942 116.645 60.3942 116.249 60.3942H113.913C115.18 60.5922 116.447 60.6714 117.754 60.711C117.913 60.8298 118.111 60.8298 118.229 60.711H118.269C119.061 60.711 119.853 60.6714 120.645 60.5922C119.932 60.513 119.219 60.4734 118.507 60.4734V60.3942ZM89.084 113.973V114.091C89.084 114.052 89.084 114.012 89.084 113.973Z" fill="#07A1A9"/>
<path d="M149.631 119.279C149.394 117.893 148.998 116.586 148.522 115.319C147.533 112.785 146.107 110.527 144.325 108.627C142.543 106.726 140.365 105.142 137.949 103.914C135.89 102.885 133.633 102.212 131.257 101.855C135.455 100.39 138.86 98.0932 141.395 95.044C144.206 91.678 145.592 87.3221 145.592 82.1741C145.592 77.0262 144.721 74.6502 143.018 71.8782C141.315 69.1459 139.058 66.8887 136.286 65.1463C133.554 63.4435 130.386 62.2159 126.941 61.4635C124.882 61.0279 122.783 60.7111 120.684 60.5527C119.892 60.6319 119.1 60.6715 118.308 60.6715H118.268C118.11 60.7903 117.912 60.7903 117.793 60.6715C116.486 60.6715 115.219 60.5527 113.952 60.3547H89.123V113.973C89.123 113.973 89.123 114.052 89.123 114.091V148.306H115.655C116.249 148.306 116.843 148.306 117.437 148.306C117.793 148.306 118.15 148.306 118.546 148.266C119.417 148.266 120.288 148.187 121.199 148.108C123.416 147.91 125.634 147.632 127.891 147.236C131.97 146.484 135.692 145.177 138.979 143.316C142.266 141.455 144.959 138.92 146.978 135.752C149.037 132.584 150.067 128.506 150.067 123.595C150.067 118.685 149.948 120.744 149.671 119.358L149.631 119.279ZM115.378 70.7298C117.674 70.7298 119.932 70.9278 122.149 71.2842C124.327 71.6406 126.307 72.3138 128.049 73.2642C129.752 74.2146 131.138 75.5214 132.168 77.145C133.197 78.7686 133.712 80.9069 133.712 83.5205C133.712 86.1341 133.158 88.8665 132.049 90.6485C130.94 92.4304 129.475 93.8164 127.653 94.8064C125.792 95.7964 123.733 96.4696 121.436 96.7864C119.1 97.1032 116.724 97.2616 114.308 97.2616H100.409V70.7298H115.417H115.378ZM136.326 130.01C135.138 131.872 133.554 133.416 131.613 134.564C129.633 135.713 127.416 136.584 124.961 137.099C122.506 137.614 119.971 137.891 117.476 137.891H100.369V107.676H117.714C120.288 107.676 122.862 107.914 125.317 108.389C127.772 108.864 129.95 109.735 131.811 110.923C133.673 112.111 135.217 113.735 136.365 115.715C137.514 117.695 138.108 120.19 138.108 123.16C138.108 126.13 137.514 128.189 136.326 130.01Z" fill="#07A1A9"/>
<path d="M367.391 52.4354C338.721 52.4354 315.516 75.6804 315.516 104.311C315.516 132.941 338.761 156.186 367.391 156.186C396.022 156.186 419.267 132.941 419.267 104.311C419.267 75.6804 396.061 52.4354 367.391 52.4354ZM367.391 147.91C343.315 147.91 323.792 128.388 323.792 104.311C323.792 80.2344 343.315 60.7117 367.391 60.7117C391.468 60.7117 410.99 80.2344 410.99 104.311C410.99 128.388 391.468 147.91 367.391 147.91Z" fill="#07A1A9"/>
<path d="M367.786 65.6617C346.442 65.6617 329.137 82.9668 329.137 104.311C329.137 125.655 346.442 142.96 367.786 142.96C389.13 142.96 406.435 125.655 406.435 104.311C406.435 82.9668 389.13 65.6617 367.786 65.6617ZM367.786 134.288C351.234 134.288 337.809 120.864 337.809 104.311C337.809 87.7583 351.234 74.3341 367.786 74.3341C384.339 74.3341 397.763 87.7583 397.763 104.311C397.763 120.864 384.339 134.288 367.786 134.288Z" fill="#FCDA04"/>
</g>
</svg>
