<svg width="20" height="20" viewBox="0 0 24 24" fill="none" xmlns="http://www.w3.org/2000/svg">
  <path d="M19 3H5C3.9 3 3 3.9 3 5V19C3 20.1 3.9 21 5 21H19C20.1 21 21 20.1 21 19V5C21 3.9 20.1 3 19 3ZM8.34 18H6V10.5H8.34V18ZM7.17 9.43C6.42 9.43 5.82 8.82 5.82 8.08C5.82 7.34 6.42 6.73 7.17 6.73C7.91 6.73 8.52 7.34 8.52 8.08C8.52 8.82 7.91 9.43 7.17 9.43ZM18 18H15.66V14.35C15.66 13.48 15.64 12.36 14.45 12.36C13.24 12.36 13.06 13.3 13.06 14.29V18H10.72V10.5H12.96V11.52H12.99C13.3 10.93 14.06 10.31 15.2 10.31C17.57 10.31 18 11.87 18 13.9V18Z" fill="#0A66C2"/>
</svg>
